<?xml version="1.0" encoding="UTF-8" standalone="no"?>
<!-- Created with Inkscape (http://www.inkscape.org/) -->

<svg
   xmlns:osb="http://www.openswatchbook.org/uri/2009/osb"
   xmlns:dc="http://purl.org/dc/elements/1.1/"
   xmlns:cc="http://creativecommons.org/ns#"
   xmlns:rdf="http://www.w3.org/1999/02/22-rdf-syntax-ns#"
   xmlns:svg="http://www.w3.org/2000/svg"
   xmlns="http://www.w3.org/2000/svg"
   xmlns:sodipodi="http://sodipodi.sourceforge.net/DTD/sodipodi-0.dtd"
   xmlns:inkscape="http://www.inkscape.org/namespaces/inkscape"
   width="73.542618"
   height="51.444244"
   id="svg4860"
   version="1.1"
   inkscape:version="0.48.4 r9939"
   sodipodi:docname="logo.svg"
   enable-background="new">
  <defs
     id="defs4862">
    <linearGradient
       id="linearGradient7827"
       osb:paint="solid">
      <stop
         style="stop-color:#000000;stop-opacity:1;"
         offset="0"
         id="stop7829" />
    </linearGradient>
    <clipPath
       clipPathUnits="userSpaceOnUse"
       id="clipPath966">
      <path
         inkscape:connector-curvature="0"
         d="m 50.0498,5064.79 21.0918,0 0,-31.61 -21.0918,0 0,31.61 z"
         id="path968" />
    </clipPath>
    <clipPath
       clipPathUnits="userSpaceOnUse"
       id="clipPath982">
      <path
         inkscape:connector-curvature="0"
         d="m 59.5654,5074.32 7.6787,0 0,-7.68 -7.6787,0 0,7.68 z"
         id="path984" />
    </clipPath>
    <clipPath
       clipPathUnits="userSpaceOnUse"
       id="clipPath1018">
      <path
         inkscape:connector-curvature="0"
         d="m 88.1841,5064.52 20.6999,0 0,-31.36 -20.6999,0 0,31.36 z"
         id="path1020" />
    </clipPath>
  </defs>
  <sodipodi:namedview
     id="base"
     pagecolor="#ffffff"
     bordercolor="#666666"
     borderopacity="1.0"
     inkscape:pageopacity="0.0"
     inkscape:pageshadow="2"
     inkscape:zoom="11.2"
     inkscape:cx="27.353936"
     inkscape:cy="25.722087"
     inkscape:document-units="px"
     inkscape:current-layer="layer1"
     showgrid="false"
     fit-margin-top="0"
     fit-margin-left="0"
     fit-margin-right="0"
     fit-margin-bottom="0"
     inkscape:window-width="1307"
     inkscape:window-height="932"
     inkscape:window-x="3514"
     inkscape:window-y="157"
     inkscape:window-maximized="0" />
  <metadata
     id="metadata4865">
    <rdf:RDF>
      <cc:Work
         rdf:about="">
        <dc:format>image/svg+xml</dc:format>
        <dc:type
           rdf:resource="http://purl.org/dc/dcmitype/StillImage" />
        <dc:title />
      </cc:Work>
    </rdf:RDF>
  </metadata>
  <g
     inkscape:label="Layer 1"
     inkscape:groupmode="layer"
     id="layer1"
     transform="translate(-338.22869,-506.64002)"
     style="display:inline">
    <path
       inkscape:connector-curvature="0"
       d="m 345.45582,524.79277 c 0,0 1.4325,-1.1625 1.28125,1.4625 -0.1525,2.62875 -1.66875,9.09375 -1.81875,10.86375 -0.1525,1.76875 -0.7075,10.105 -0.7075,12.985 l 0,7.07125 c 0,0 0.7075,2.1225 1.8175,-0.40375 1.1125,-2.525 2.3225,-10.83625 2.93,-12.7825 0.675,-2.1525 1.5175,-3.08125 1.5175,-3.08125 0,0 1.3625,-1.515 2.27125,0.7575 0.91,2.275 1.66875,6.16375 1.66875,6.16375 0,0 2.02,7.47875 2.425,8.43875 0.4025,0.96 1.465,2.47625 1.96875,1.46375 0.50625,-1.01125 0,-9.59875 0,-9.59875 0,0 -0.9075,-10.30625 -1.615,-13.89375 -0.70625,-3.58625 -1.11125,-6.11125 -1.11125,-7.525 0,-1.41375 0.10125,-2.4275 1.31375,-1.92 1.21125,0.50625 2.77875,2.92875 3.38375,3.89125 0.6075,0.9575 1.91875,2.425 2.6775,2.57375 0.7575,0.1525 1.6175,-1.1625 0.81,-2.9275 -0.81,-1.77 -3.8175,-8.795 -9.86625,-9.5525 -6.04875,-0.75625 -9.6875,0.3075 -12.51375,4.39625 -2.83125,4.095 -3.3375,5.91 -3.3375,5.91 0,0 -0.50375,1.3675 -0.2525,2.32625 0.2525,0.96125 1.8725,0.7075 2.88,-1.21375 1.0125,-1.92 4.2775,-5.405 4.2775,-5.405"
       style="opacity:0.69999999999999996;fill:#ffffff;fill-opacity:1;fill-rule:nonzero;stroke:none"
       id="path976" />
    <path
       inkscape:connector-curvature="0"
       d="m 359.72157,511.44002 c 0,2.65 -2.1475,4.795 -4.7975,4.795 -2.65125,0 -4.80125,-2.145 -4.80125,-4.795 0,-2.6525 2.15,-4.8 4.80125,-4.8 2.65,0 4.7975,2.1475 4.7975,4.8"
       style="opacity:0.69999999999999996;fill:#ffffff;fill-opacity:1;fill-rule:nonzero;stroke:none"
       id="path992" />
    <path
       inkscape:connector-curvature="0"
       d="m 400.00732,511.44005 c 0,2.65 -2.15,4.795 -4.80125,4.795 -2.64875,0 -4.8,-2.145 -4.8,-4.795 0,-2.6525 2.15125,-4.8 4.8,-4.8 2.65125,0 4.80125,2.1475 4.80125,4.8"
       style="fill:#ffffff;fill-opacity:1;fill-rule:nonzero;stroke:none;opacity:0.69999999999999996"
       id="path1008" />
    <path
       id="path1012"
       style="fill:#ff6f3f;fill-opacity:0.94117647;fill-rule:nonzero;stroke:none"
       d="m 378.72069,527.87442 c 0,1.9575 -1.585,3.54125 -3.54,3.54125 -1.955,0 -3.53875,-1.58375 -3.53875,-3.54125 0,-1.95375 1.58375,-3.53875 3.53875,-3.53875 1.955,0 3.54,1.585 3.54,3.53875"
       inkscape:connector-curvature="0" />
    <path
       inkscape:connector-curvature="0"
       d="m 387.45656,531.41503 c 0,0 -2.37625,-0.004 -1.26375,-2.73 1.1125,-2.72875 3.38625,-6.32 6.0125,-8.235 2.62875,-1.9225 5.96125,-1.6175 8.68875,-1.41875 2.73,0.205 5.1525,1.215 6.97375,3.5375 1.8175,2.325 3.33375,4.85125 3.6375,6.16375 0.30125,1.315 0.70625,3.08375 -1.06125,2.93 -1.12625,-0.0962 -2.4775,-2.02 -3.485,-3.78875 -1.0125,-1.76625 -2.0225,-2.72375 -2.0225,-2.72375 0,0 -1.4125,-1.8725 -1.61625,-0.815 -0.20125,1.0575 0.90875,6.88875 1.2125,8.4725 0.30375,1.58375 1.41375,6.18125 1.51375,10.02125 0.10125,3.83875 0.50625,8.7425 0.50625,8.7425 l -0.1,3.9375 c 0,0 -0.10125,2.79 -1.3125,2.56 -1.21375,-0.235 -2.62875,-8.11625 -2.8325,-9.8325 -0.2,-1.7175 -0.60625,-3.63875 -1.51375,-5.5575 -0.91,-1.9225 -2.22375,-2.93 -3.23375,-1.315 -1.01125,1.61625 -1.2125,3.13125 -1.82125,6.365 -0.6025,3.23375 -1.31125,6.365 -1.71625,7.2775 -0.40125,0.9075 -0.60375,3.21875 -1.9175,3.07125 -1.315,-0.14375 -0.8075,-1.96 -1.01125,-4.69 -0.20125,-2.7275 0,-11.0125 1.3125,-15.56125 1.315,-4.54625 1.61625,-7.17375 1.72,-9.29625 0.1,-2.12125 0.1,-3.23 0.1,-3.23 0,0 -0.40625,-1.01375 -1.615,0 -1.21375,1.00875 -2.47625,3.03125 -2.47625,3.03125 0,0 -1.96125,3.2 -2.67875,3.08375"
       style="opacity:0.69999999999999996;fill:#ffffff;fill-opacity:1;fill-rule:nonzero;stroke:none"
       id="path1028" />
    <path
       id="path1032"
       style="fill:#ff6f3f;fill-opacity:0.94117647;fill-rule:nonzero;stroke:none"
       d="m 367.19657,531.05867 c 0,0 4.34625,2.17 7.98375,2.17 3.6375,0 8.4375,-1.81375 8.4375,-1.81375 0,0 1.97,0.0962 1.26125,1.15625 -0.70625,1.06375 -1.31375,1.7175 -3.58875,2.57875 -2.27,0.85875 -2.97875,1.11125 -2.97875,2.02 0,0.90875 0.7575,4.495 1.36375,8.03 0.60625,3.54125 0.65875,7.07375 0.60625,8.49125 -0.0475,1.415 0.20375,2.1225 -0.4025,2.2725 -0.6075,0.15375 -1.21125,-0.50375 -1.5175,-1.9675 -0.30375,-1.46875 -1.16125,-4.4975 -1.81625,-5.40875 -0.65875,-0.91 -1.365,-1.26125 -2.17375,-0.0525 -0.81,1.2175 -1.415,4.39875 -1.81875,5.46125 -0.40375,1.05875 -0.7075,2.37125 -1.36375,2.47125 -0.65625,0.1025 -0.86,-3.53375 -0.76,-5.65625 0.10375,-2.12125 1.41625,-8.08375 1.5175,-10.20625 0.1025,-2.12 0.60625,-2.52625 0,-3.73625 -0.60625,-1.2125 -1.3125,-1.11 -3.03125,-2.1725 -1.71875,-1.06125 -2.475,-1.82125 -2.82875,-2.52375 -0.3525,-0.71125 -0.05,-1.21625 1.11,-1.11375"
       inkscape:connector-curvature="0" />
  </g>
</svg>
